<svg width="18" height="20" viewBox="0 0 18 20" fill="none" xmlns="http://www.w3.org/2000/svg">
<path fill-rule="evenodd" clip-rule="evenodd" d="M9.0002 0.200012C5.24837 0.200012 2.2002 3.24818 2.2002 7.00001V11.7578L0.334555 14.5563C0.246946 14.6877 0.200195 14.8421 0.200195 15V16C0.200195 16.4418 0.558368 16.8 1.0002 16.8H6.20639L6.20088 16.933C6.20042 16.944 6.2002 16.9551 6.2002 16.9661C6.2002 18.5139 7.44574 19.8 9.0002 19.8C10.5546 19.8 11.8002 18.5139 11.8002 16.9661V16.8H17.0002C17.442 16.8 17.8002 16.4418 17.8002 16V15C17.8002 14.8421 17.7534 14.6877 17.6658 14.5563L15.8002 11.7578V7.00001C15.8002 3.24818 12.752 0.200012 9.0002 0.200012ZM10.2002 16.8H7.80776L7.80028 16.9807C7.80802 17.6633 8.3592 18.2 9.0002 18.2C9.64574 18.2 10.2002 17.6557 10.2002 16.9661V16.8ZM16.172 15.2L14.3346 12.4438C14.2469 12.3124 14.2002 12.158 14.2002 12V7.00001C14.2002 4.13184 11.8684 1.80001 9.0002 1.80001C6.13202 1.80001 3.8002 4.13184 3.8002 7.00001V12C3.8002 12.158 3.75344 12.3124 3.66584 12.4438L1.82834 15.2H16.172Z" fill="#5C5C5C"/>
</svg>
