<svg width="25" height="24" viewBox="0 0 25 24" fill="current" xmlns="http://www.w3.org/2000/svg">
<path fill-rule="evenodd" clip-rule="evenodd" d="M8.49995 1.78003C8.94178 1.78003 9.29995 2.1382 9.29995 2.58003V3.28003H15.7V2.58003C15.7 2.1382 16.0581 1.78003 16.5 1.78003C16.9418 1.78003 17.3 2.1382 17.3 2.58003V3.28003H21.5C21.9418 3.28003 22.3 3.6382 22.3 4.08003V19.23C22.3 20.8869 20.9568 22.23 19.3 22.23H5.69995C4.0431 22.23 2.69995 20.8869 2.69995 19.23V4.08003C2.69995 3.6382 3.05812 3.28003 3.49995 3.28003H7.69995V2.58003C7.69995 2.1382 8.05812 1.78003 8.49995 1.78003ZM15.7 4.88003V5.58003C15.7 6.02186 16.0581 6.38003 16.5 6.38003C16.9418 6.38003 17.3 6.02186 17.3 5.58003V4.88003H20.7V7.28003H4.29995V4.88003H7.69995V5.58003C7.69995 6.02186 8.05812 6.38003 8.49995 6.38003C8.94178 6.38003 9.29995 6.02186 9.29995 5.58003V4.88003H15.7ZM15.3667 17.1134C14.9248 17.1134 14.5667 17.4716 14.5667 17.9134C14.5667 18.3552 14.9248 18.7134 15.3667 18.7134H18.0333C18.4751 18.7134 18.8333 18.3552 18.8333 17.9134C18.8333 17.4716 18.4751 17.1134 18.0333 17.1134H15.3667Z" fill="#7FDB6F"/>
</svg>
