<svg width="20" height="22" viewBox="0 0 20 22" fill="none" xmlns="http://www.w3.org/2000/svg">
<path d="M12.0667 16.9134C12.0667 16.4715 12.4248 16.1134 12.8667 16.1134H15.5333C15.9751 16.1134 16.3333 16.4715 16.3333 16.9134C16.3333 17.3552 15.9751 17.7134 15.5333 17.7134H12.8667C12.4248 17.7134 12.0667 17.3552 12.0667 16.9134Z" fill="#5C5C5C"/>
<path fill-rule="evenodd" clip-rule="evenodd" d="M6.79995 1.58C6.79995 1.13817 6.44178 0.779999 5.99995 0.779999C5.55812 0.779999 5.19995 1.13817 5.19995 1.58V2.28H0.999951C0.558123 2.28 0.199951 2.63817 0.199951 3.08V18.23C0.199951 19.8869 1.5431 21.23 3.19995 21.23H16.8C18.4568 21.23 19.8 19.8869 19.8 18.23V3.08C19.8 2.63817 19.4418 2.28 19 2.28H14.8V1.58C14.8 1.13817 14.4418 0.779999 14 0.779999C13.5581 0.779999 13.2 1.13817 13.2 1.58V2.28H6.79995V1.58ZM13.2 4.58V3.88H6.79995V4.58C6.79995 5.02183 6.44178 5.38 5.99995 5.38C5.55812 5.38 5.19995 5.02183 5.19995 4.58V3.88H1.79995V6.28H18.2V3.88H14.8V4.58C14.8 5.02183 14.4418 5.38 14 5.38C13.5581 5.38 13.2 5.02183 13.2 4.58ZM18.2 7.88H1.79995V18.23C1.79995 19.0032 2.42675 19.63 3.19995 19.63H16.8C17.5732 19.63 18.2 19.0032 18.2 18.23V7.88Z" fill="#5C5C5C"/>
</svg>
