<svg width="31" height="30" viewBox="0 0 31 30" fill="none" xmlns="http://www.w3.org/2000/svg">
<path fill-rule="evenodd" clip-rule="evenodd" d="M5 0C2.51472 0 0.5 2.01472 0.5 4.5V25.5C0.5 27.9853 2.51472 30 5 30H26C28.4853 30 30.5 27.9853 30.5 25.5V4.5C30.5 2.01472 28.4853 0 26 0H5ZM12.5 10.5C12.5 12.1569 11.1569 13.5 9.5 13.5C7.84315 13.5 6.5 12.1569 6.5 10.5C6.5 8.84315 7.84315 7.5 9.5 7.5C11.1569 7.5 12.5 8.84315 12.5 10.5ZM13.1951 21.3659L18.5 15L26 24H5L10.25 18L13.1951 21.3659Z" fill="#8A8A8A"/>
</svg>
