<svg width="25" height="24" viewBox="0 0 25 24" fill="none" xmlns="http://www.w3.org/2000/svg">
<path fill-rule="evenodd" clip-rule="evenodd" d="M13.9524 0.742455C13.1568 0.283114 12.1765 0.283114 11.3809 0.742455L3.56007 5.25784C2.76446 5.71718 2.27435 6.56608 2.27435 7.48476V16.5155C2.27435 17.4342 2.76446 18.2831 3.56007 18.7425L11.3809 23.2578C12.1765 23.7172 13.1568 23.7172 13.9524 23.2578L21.7732 18.7425C22.5689 18.2831 23.059 17.4342 23.059 16.5155V7.48476C23.059 6.56608 22.5689 5.71718 21.7732 5.25784L13.9524 0.742455ZM13.9581 8.28571C13.9581 8.86046 13.581 9.34713 13.0607 9.51176C13.9337 11.1123 15.6194 13.122 17.7854 11.788C17.5398 11.5538 17.3867 11.2233 17.3867 10.8571C17.3867 10.1471 17.9623 9.57143 18.6724 9.57143C19.3825 9.57143 19.9581 10.1471 19.9581 10.8571C19.9581 11.5672 19.3825 12.1429 18.6724 12.1429C18.5724 12.1429 18.475 12.1314 18.3816 12.1098L17.1724 16.4286H8.17237L6.96313 12.1098C6.8697 12.1314 6.77237 12.1429 6.67237 12.1429C5.96229 12.1429 5.38666 11.5672 5.38666 10.8571C5.38666 10.1471 5.96229 9.57143 6.67237 9.57143C7.38245 9.57143 7.95809 10.1471 7.95809 10.8571C7.95809 11.2233 7.80498 11.5538 7.55929 11.788C9.7253 13.122 11.4111 11.1123 12.2841 9.51176C11.7638 9.34713 11.3867 8.86046 11.3867 8.28571C11.3867 7.57563 11.9623 7 12.6724 7C13.3825 7 13.9581 7.57563 13.9581 8.28571Z" fill="#D9D9D9"/>
</svg>
