<svg width="20" height="20" viewBox="0 0 20 20" fill="none" xmlns="http://www.w3.org/2000/svg">
<path fill-rule="evenodd" clip-rule="evenodd" d="M8.5002 0.199951C3.91623 0.199951 0.200195 3.91599 0.200195 8.49995C0.200195 13.0839 3.91623 16.8 8.5002 16.8C10.5041 16.8 12.3421 16.0898 13.7763 14.9075L18.4345 19.5656C18.7469 19.8781 19.2535 19.8781 19.5659 19.5656C19.8783 19.2532 19.8783 18.7467 19.5659 18.4343L14.9077 13.7761C16.0901 12.3419 16.8002 10.5038 16.8002 8.49995C16.8002 3.91599 13.0842 0.199951 8.5002 0.199951ZM1.8002 8.49995C1.8002 4.79964 4.79989 1.79995 8.5002 1.79995C12.2005 1.79995 15.2002 4.79964 15.2002 8.49995C15.2002 12.2003 12.2005 15.2 8.5002 15.2C4.79989 15.2 1.8002 12.2003 1.8002 8.49995Z" fill="#5C5C5C"/>
</svg>
