<svg width="24" height="20" viewBox="0 0 24 20" fill="none" xmlns="http://www.w3.org/2000/svg">
<path fill-rule="evenodd" clip-rule="evenodd" d="M1.8892 6.67786C3.33612 6.65748 4.77981 6.87556 6.16378 7.32648C8.51921 8.0939 9.75568 9.09166 10.8337 9.96157C10.9452 10.0515 11.0549 10.1401 11.1641 10.2269L10.168 11.479C10.0551 11.3892 9.9436 11.2994 9.83224 11.2096C8.77816 10.3602 7.73832 9.52226 5.66812 8.84777C4.45144 8.45135 3.18282 8.2598 1.91173 8.2777C1.85725 8.27847 1.81315 8.31921 1.81071 8.37767C1.75613 9.68417 1.90939 10.9938 2.26698 12.255C2.73912 13.9203 3.55621 15.4613 4.66189 16.7742C5.38084 17.5881 6.48016 18.122 7.55922 18.2022C7.57479 18.2033 7.59031 18.205 7.60578 18.207L7.60679 18.2072L7.62273 18.2091C7.63739 18.2108 7.66119 18.2134 7.69317 18.2165C7.75722 18.2226 7.85351 18.2304 7.97448 18.236C8.21784 18.2473 8.5536 18.2494 8.92342 18.214C9.69714 18.1398 10.4621 17.916 10.9286 17.44L10.9342 17.4343L10.941 17.4274L10.9687 17.399C10.9936 17.3733 11.031 17.3342 11.0778 17.2838C11.1717 17.1827 11.3025 17.0373 11.4479 16.8628C11.7455 16.5057 12.0751 16.0609 12.2844 15.6422L13.7155 16.3578C13.4248 16.9391 13.0044 17.4943 12.677 17.8871C12.5099 18.0877 12.3595 18.2548 12.2502 18.3725C12.1955 18.4314 12.1508 18.4783 12.1191 18.5111L12.0816 18.5496L12.0708 18.5605L12.0675 18.5638L12.0664 18.5649C12.0664 18.5649 12.0656 18.5657 11.5 18L12.0708 18.5605C11.2035 19.4454 9.96892 19.7211 9.07611 19.8067C8.61266 19.8511 8.1985 19.8481 7.90028 19.8343C7.75045 19.8273 7.62803 19.8175 7.54106 19.8092C7.49753 19.8051 7.46275 19.8013 7.43771 19.7983L7.42028 19.7962C5.93836 19.6806 4.45294 18.9593 3.4552 17.825L3.44434 17.8124C2.18835 16.3231 1.26211 14.5765 0.727651 12.6914C0.323534 11.2661 0.150457 9.78659 0.212102 8.31089C0.249809 7.40823 0.981813 6.69064 1.8892 6.67786Z" fill="#5C5C5C"/>
<path fill-rule="evenodd" clip-rule="evenodd" d="M4.93427 11.4343C5.24669 11.1219 5.75322 11.1219 6.06564 11.4343L11.5656 16.9343C11.8781 17.2467 11.8781 17.7533 11.5656 18.0657C11.2532 18.3781 10.7467 18.3781 10.4343 18.0657L4.93427 12.5657C4.62185 12.2533 4.62185 11.7467 4.93427 11.4343Z" fill="#5C5C5C"/>
<path fill-rule="evenodd" clip-rule="evenodd" d="M21.4351 2.01743C21.4188 1.9635 21.3661 1.93004 21.3047 1.94424C19.6598 2.32472 18.0876 2.99208 16.6584 3.9205C14.8819 5.07452 13.3677 6.605 12.2191 8.4092C10.5593 11.4278 11.7135 14.7601 13.701 15.9093C14.7717 16.5253 15.9828 16.8033 17.1602 16.5074C18.3204 16.2158 19.5896 15.3311 20.7257 13.3427C21.6428 11.4059 22.1443 9.29069 22.1956 7.13868C22.2354 5.47283 21.8746 3.47096 21.4351 2.01743ZM20.9441 0.3854C21.8198 0.182835 22.7046 0.687585 22.9667 1.55435C23.4411 3.12342 23.8401 5.29852 23.7952 7.17688C23.7382 9.56268 23.18 11.9087 22.1579 14.0565C22.1496 14.074 22.1407 14.0911 22.1311 14.1079C20.8352 16.389 19.2432 17.6336 17.5502 18.0591C15.8696 18.4815 14.2317 18.0608 12.9024 17.2957L12.9012 17.295C10.0653 15.6562 8.78255 11.3085 10.831 7.61306C10.8387 7.59926 10.8467 7.58569 10.8552 7.57237C12.1274 5.56693 13.8092 3.8634 15.7868 2.57874C17.3719 1.54906 19.117 0.808035 20.9441 0.3854Z" fill="#5C5C5C"/>
<path fill-rule="evenodd" clip-rule="evenodd" d="M19.6657 4.93655C20.0314 5.18456 20.1267 5.68204 19.8787 6.04769L13.3288 15.7044C13.0808 16.0701 12.5833 16.1655 12.2176 15.9174C11.852 15.6694 11.7566 15.172 12.0046 14.8063L18.5546 5.14956C18.8026 4.7839 19.3001 4.68854 19.6657 4.93655Z" fill="#5C5C5C"/>
<path fill-rule="evenodd" clip-rule="evenodd" d="M20.4903 10.8465C20.5352 11.2861 20.2152 11.6787 19.7757 11.7236L15.399 12.1701C14.9595 12.215 14.5668 11.895 14.522 11.4555C14.4771 11.0159 14.7971 10.6233 15.2366 10.5784L19.6133 10.1319C20.0528 10.087 20.4455 10.407 20.4903 10.8465Z" fill="#5C5C5C"/>
</svg>
