<svg width="25" height="24" viewBox="0 0 25 24" fill="current" xmlns="http://www.w3.org/2000/svg">
<path d="M8.50013 21L3.88108 21.7698C3.20426 21.8826 2.61748 21.2958 2.73029 20.619L3.50013 16L13.797 5.7031L18.7892 10.7109L8.50013 21Z" fill="#D9D9D9"/>
<path d="M18.2072 2.70708L21.793 6.29286C22.1835 6.68339 22.1835 7.31655 21.793 7.70708L20.2072 9.29294L15.2189 4.28122L16.793 2.70708C17.1835 2.31655 17.8167 2.31655 18.2072 2.70708Z" fill="#D9D9D9"/>
<path fill-rule="evenodd" clip-rule="evenodd" d="M13.7001 21C13.7001 20.5581 14.0583 20.2 14.5001 20.2H21.5001C21.942 20.2 22.3001 20.5581 22.3001 21C22.3001 21.4418 21.942 21.8 21.5001 21.8H14.5001C14.0583 21.8 13.7001 21.4418 13.7001 21Z" fill="#D9D9D9"/>
</svg>
